<?xml version="1.0" standalone="no"?>
<!DOCTYPE svg PUBLIC "-//W3C//DTD SVG 20010904//EN"
 "http://www.w3.org/TR/2001/REC-SVG-20010904/DTD/svg10.dtd">
<svg version="1.0" xmlns="http://www.w3.org/2000/svg"
 width="16" height="16" viewBox="0 0 256.000000 256.000000"
 preserveAspectRatio="xMidYMid meet">

<g transform="translate(0.000000,256.000000) scale(0.100000,-0.100000)"
fill="#000000" stroke="none">
<path d="M138 2244 c-52 -28 -49 -102 4 -130 45 -23 178 -17 207 10 31 28 41
13 86 -122 20 -61 40 -110 44 -108 4 3 5 -10 3 -27 -2 -21 39 -157 121 -402
69 -203 128 -377 131 -386 6 -14 -4 -17 -66 -23 -190 -17 -349 -168 -365 -345
-7 -78 3 -91 71 -92 44 0 48 -2 26 -10 -89 -36 -129 -153 -77 -229 43 -64 68
-75 172 -75 104 0 129 11 173 75 53 78 7 202 -84 230 -17 5 269 8 686 9 485 0
707 -3 690 -10 -89 -36 -129 -153 -77 -229 43 -64 68 -75 172 -75 104 0 129
11 173 75 53 78 7 202 -84 230 -27 8 -27 8 13 9 49 1 71 27 53 61 -11 20 -21
20 -680 20 -549 0 -670 2 -670 13 0 7 8 36 17 63 23 69 110 154 186 182 56 21
70 22 540 22 449 0 485 2 523 19 23 10 49 29 58 42 9 13 75 202 148 420 143
430 145 437 88 466 -19 10 -173 13 -675 13 l-651 0 -37 115 c-39 116 -58 145
-110 161 -12 4 -33 15 -46 25 -19 15 -41 19 -106 19 -103 0 -135 -19 -135 -80
0 -61 32 -80 135 -80 69 0 87 3 109 21 23 18 30 20 41 8 13 -15 70 -178 63
-184 -7 -8 -486 -10 -481 -2 8 13 -67 224 -85 240 -9 8 -33 22 -52 31 -19 9
-46 23 -60 31 -33 20 -156 19 -192 -1z m862 -483 c5 -11 10 -56 10 -101 0
-112 -6 -120 -83 -120 -36 0 -68 5 -75 12 -16 16 -16 200 0 216 7 7 39 12 75
12 51 0 64 -3 73 -19z m320 0 c5 -11 10 -56 10 -101 0 -112 -6 -120 -83 -120
-36 0 -68 5 -75 12 -16 16 -16 200 0 216 7 7 39 12 75 12 51 0 64 -3 73 -19z
m320 0 c5 -11 10 -56 10 -101 0 -112 -6 -120 -83 -120 -36 0 -68 5 -75 12 -8
8 -12 47 -12 108 0 61 4 100 12 108 7 7 39 12 75 12 51 0 64 -3 73 -19z m-640
-400 c5 -11 10 -56 10 -101 0 -112 -6 -120 -83 -120 -36 0 -68 5 -75 12 -16
16 -16 200 0 216 7 7 39 12 75 12 51 0 64 -3 73 -19z m320 0 c5 -11 10 -56 10
-101 0 -112 -6 -120 -83 -120 -36 0 -68 5 -75 12 -16 16 -16 200 0 216 7 7 39
12 75 12 51 0 64 -3 73 -19z m320 0 c5 -11 10 -56 10 -101 0 -112 -6 -120 -83
-120 -36 0 -68 5 -75 12 -8 8 -12 47 -12 108 0 61 4 100 12 108 7 7 39 12 75
12 51 0 64 -3 73 -19z m-754 -431 c-50 -53 -90 -130 -101 -192 l-7 -38 -199 0
c-221 0 -210 -5 -183 73 18 53 78 125 131 158 67 41 102 48 257 49 l149 0 -47
-50z m-375 -409 c33 -27 33 -95 0 -122 -25 -21 -71 -25 -100 -9 -31 16 -46 65
-31 100 7 17 20 35 29 40 27 16 77 11 102 -9z m1560 0 c33 -27 33 -95 0 -122
-25 -21 -71 -25 -100 -9 -31 16 -46 65 -31 100 7 17 20 35 29 40 27 16 77 11
102 -9z"/>
</g>
</svg>
